<svg width="128" height="128" viewBox="0 0 128 128" fill="none" xmlns="http://www.w3.org/2000/svg">
  <defs>
    <linearGradient id="bgGradient" x1="0%" y1="0%" x2="100%" y2="100%">
      <stop offset="0%" style="stop-color:#68217A" />
      <stop offset="100%" style="stop-color:#512BD4" />
    </linearGradient>
    
    <linearGradient id="gloss" x1="0%" y1="0%" x2="0%" y2="100%">
      <stop offset="0%" style="stop-color:white; stop-opacity:0.3" />
      <stop offset="50%" style="stop-color:white; stop-opacity:0" />
    </linearGradient>
    
    <filter id="shadow" x="-10%" y="-10%" width="120%" height="120%">
      <feGaussianBlur in="SourceAlpha" stdDeviation="1.5" />
      <feOffset dx="0" dy="1" result="offsetblur" />
      <feComponentTransfer>
        <feFuncA type="linear" slope="0.3" />
      </feComponentTransfer>
      <feMerge>
        <feMergeNode />
        <feMergeNode in="SourceGraphic" />
      </feMerge>
    </filter>
  </defs>

  <rect x="10" y="10" width="108" height="108" rx="20" fill="url(#bgGradient)" />
  
  <path d="M10 30C10 20 20 10 30 10H98C108 10 118 20 118 30V60C60 60 10 90 10 30Z" fill="url(#gloss)" />

  <rect x="22" y="28" width="84" height="16" rx="6" fill="white" filter="url(#shadow)" />
  
  <g filter="url(#shadow)">
    <rect x="22" y="52" width="24" height="16" rx="4" fill="white" fill-opacity="0.8" />
    <rect x="52" y="52" width="24" height="16" rx="4" fill="white" fill-opacity="0.8" />
    <rect x="82" y="52" width="24" height="16" rx="4" fill="white" fill-opacity="0.8" />
    
    <rect x="22" y="74" width="24" height="16" rx="4" fill="white" fill-opacity="0.6" />
    <rect x="52" y="74" width="24" height="16" rx="4" fill="white" fill-opacity="0.6" />
    <rect x="82" y="74" width="24" height="16" rx="4" fill="white" fill-opacity="0.6" />
    
    <rect x="22" y="96" width="24" height="16" rx="4" fill="white" fill-opacity="0.4" />
    <rect x="52" y="96" width="24" height="16" rx="4" fill="white" fill-opacity="0.4" />
    <rect x="82" y="96" width="24" height="16" rx="4" fill="white" fill-opacity="0.4" />
  </g>
</svg>