<svg xmlns="http://www.w3.org/2000/svg" viewBox="0 0 24 24" fill="#212121">
  <path d="M12 2C6.48 2 2 6.48 2 12s4.48 10 10 10c.83 0 1.5-.67 1.5-1.5 0-.39-.15-.74-.39-1.01-.23-.26-.38-.61-.38-1 0-.83.67-1.5 1.5-1.5H16c3.31 0 6-2.69 6-6 0-5.52-4.48-9.99-10-9.99zM6.5 13C5.67 13 5 12.33 5 11.5S5.67 10 6.5 10 8 10.67 8 11.5 7.33 13 6.5 13zm3-4C8.67 9 8 8.33 8 7.5S8.67 6 9.5 6s1.5.67 1.5 1.5S10.33 9 9.5 9zm5 0c-.83 0-1.5-.67-1.5-1.5S13.67 6 14.5 6s1.5.67 1.5 1.5S15.33 9 14.5 9zm3 4c-.83 0-1.5-.67-1.5-1.5s.67-1.5 1.5-1.5 1.5.67 1.5 1.5-.67 1.5-1.5 1.5z"/>
</svg>
